<svg width="24" height="24" viewBox="0 0 24 24" fill="none" xmlns="http://www.w3.org/2000/svg">
<path d="M11.6681 0C7.43284 0 4 3.43283 4 7.66806C4 9.4944 4.64219 11.169 5.70926 12.4853C6.05322 12.909 6.62865 13.576 6.92859 14.0322C8.65568 16.656 10.8714 20.4666 11.5171 23.5938C11.6279 24.1278 11.7614 24.1371 11.9052 23.6111C12.3657 21.9249 13.5602 18.2407 16.0269 14.3856C16.321 13.9258 16.9174 13.2824 17.2876 12.8818C17.8239 12.3011 18.2702 11.6362 18.6093 10.9113C19.0717 9.92247 19.336 8.82775 19.336 7.66896C19.336 3.43324 15.9032 0 11.6681 0ZM11.6681 11.8111C9.30417 11.8111 7.38792 9.89481 7.38792 7.53093C7.38792 5.16746 9.30417 3.25128 11.6681 3.25128C14.0319 3.25128 15.9482 5.16754 15.9482 7.53093C15.9482 9.8949 14.0319 11.8111 11.6681 11.8111Z" fill="white"/>
<path d="M11.668 9.15967C12.6511 9.15967 13.448 8.36272 13.448 7.37964C13.448 6.39656 12.6511 5.59961 11.668 5.59961C10.6849 5.59961 9.88794 6.39656 9.88794 7.37964C9.88794 8.36272 10.6849 9.15967 11.668 9.15967Z" fill="white"/>
</svg>
